<?xml version="1.0" encoding="utf-8"?>
<!-- Generator: Adobe Illustrator 22.1.0, SVG Export Plug-In . SVG Version: 6.00 Build 0)  -->
<svg version="1.1" id="Layer_1" xmlns="http://www.w3.org/2000/svg" xmlns:xlink="http://www.w3.org/1999/xlink" x="0px" y="0px"
	 viewBox="0 0 500 455.1" enable-background="new 0 0 500 455.1" xml:space="preserve">
<g>
	<path d="M489.3,171.2c4.9-8.3,12.4-24.6,8.9-41.9c-2.2-11-8.5-20.4-18.5-28.1c7.6-14.2,13-37-1.8-59.5
		C456.7,9.3,416.4-6.1,375.4,2.4C356.9,6.4,340.1,14.8,327,27c-11.5,10.5-19.7,23.5-24.2,38.1c-17.2-5.8-34.9-8.7-52.7-8.7
		s-35.6,2.9-52.7,8.7c-4.5-14.6-12.7-27.6-24.1-38.2C160,14.8,143.2,6.3,124.7,2.3c-41-8.6-81.3,6.8-102.6,39.3
		c-14.7,22.5-9.4,45.3-1.8,59.5c-10.1,7.7-16.3,17.1-18.6,28.1c-3.6,17.4,4,33.7,8.9,41.9c-11.9,22.5-14,45.3-5.8,65
		c6.1,14.5,17.5,26.2,31,32.2c-5.2,26.7-5.6,52.1-0.7,73.8c8.8,39.1,33.4,68.5,73.3,87.5c35.5,16.9,83,25.5,141.5,25.5
		s106.1-8.6,141.5-25.5c39.8-19,64.4-48.4,73.3-87.5c4.9-21.8,4.5-47.2-0.7-73.8c13.5-6.1,24.9-17.8,31-32.2
		C503.3,216.5,501.2,193.7,489.3,171.2z M477,228.5c-3.6,8.6-10.1,15.8-17.6,20.2c-7-25.7-18.4-52.1-33.3-77
		c-1.8-2.9-4.8-4.6-7.9-4.7c-1.9-0.1-3.8,0.3-5.6,1.4c-4.6,2.7-6.2,8.8-3.3,13.4c3.8,6.3,7.3,12.7,10.6,19.1
		c0.1,0.3,0.3,0.5,0.4,0.8c0.2,0.3,0.3,0.6,0.5,0.9c23.4,47.2,33.1,98.3,24.8,135.1c-7.4,32.9-28.5,57.8-62.6,74.1
		c-32.7,15.6-77.5,23.6-133,23.6s-100.3-7.9-133-23.6c-34.1-16.3-55.2-41.2-62.6-74.1c-7.4-33-0.4-77.5,18-120.3
		c0-0.1,0.1-0.1,0.1-0.2c0.2-0.5,0.4-1,0.7-1.5c5.1-11.6,10.9-23,17.5-33.9c2.7-4.6,1.3-10.6-3.3-13.4c-1.8-1.1-3.6-1.5-5.6-1.4
		c-3.1,0.2-6.2,1.9-7.9,4.7c-14.9,24.8-26.2,51.2-33.3,76.9c-7.5-4.4-14-11.7-17.6-20.2c-4.5-10.8-6.9-28.7,7.5-52.7
		c2.1-3.4,1.9-7.8-0.6-10.9c-0.1-0.2-12.1-16.3-8.9-31.6c1.7-8.3,7.5-15,17.7-20.8c2.5-1.5,4.3-3.9,4.9-6.7c0.5-2.8-0.3-5.8-2.1-8
		c-0.8-0.9-18.1-22.3-2.9-45.3C47,39.1,59.6,29.3,74.8,24c14.4-5,30.2-5.9,45.8-2.6c23.3,4.9,50,20.8,58.4,50.8
		c-15.9,7.3-31.3,17.1-45.6,29.1c-0.1,0.1-0.2,0.2-0.3,0.3c-0.9,0.8-1.9,1.6-2.7,2.3c-0.3,0.3-0.6,0.5-0.9,0.8
		c-0.5,0.4-0.9,0.8-1.4,1.2c-0.7,0.6-1.3,1.2-2,1.8c-4,3.6-4.3,9.8-0.7,13.8c0.7,0.7,1.4,1.3,2.1,1.8c0.1,0,0.1,0.1,0.2,0.1
		c0.2,0.1,0.4,0.2,0.6,0.3c0.1,0,0.2,0.1,0.3,0.1c0.2,0.1,0.4,0.2,0.6,0.2c0.1,0,0.2,0.1,0.4,0.1c0.2,0.1,0.4,0.1,0.5,0.2
		c0.1,0,0.3,0.1,0.4,0.1c0.2,0,0.3,0.1,0.5,0.1c0.2,0,0.3,0.1,0.5,0.1c0.2,0,0.3,0,0.5,0c0.2,0,0.4,0,0.5,0s0.2,0,0.2,0
		c0.1,0,0.2,0,0.2,0c0.1,0,0.3,0,0.4,0c0.2,0,0.3,0,0.5,0c0.2,0,0.3,0,0.5-0.1c0.1,0,0.3-0.1,0.4-0.1c0.2,0,0.3-0.1,0.5-0.1
		c0.1,0,0.2-0.1,0.4-0.1c0.2-0.1,0.4-0.1,0.6-0.2c0.1,0,0.2-0.1,0.3-0.1c0.2-0.1,0.4-0.2,0.6-0.3c0.1,0,0.1-0.1,0.2-0.1
		c0.8-0.4,1.5-0.9,2.1-1.5c1.1-1,2.1-1.9,3.2-2.8c32.8-28.4,69.9-43.5,107.5-43.5s74.7,15,107.5,43.5c1.1,0.9,2.1,1.9,3.2,2.8
		c1.8,1.6,3.9,2.4,6.2,2.5c0.1,0,0.2,0,0.3,0c0.2,0,0.4,0,0.7,0c2.5-0.1,5-1.2,6.7-3.2c3.6-4,3.3-10.2-0.7-13.8
		c-0.6-0.6-1.3-1.1-1.9-1.7c-0.5-0.4-1-0.9-1.5-1.3c-0.3-0.2-0.6-0.5-0.8-0.7c-1-0.8-1.9-1.7-2.8-2.4c-0.1-0.1-0.2-0.1-0.3-0.2
		c-14.5-12-29.7-21.8-45.7-29.1c8.4-30.1,35.1-45.9,58.4-50.8c15.6-3.3,31.5-2.3,45.8,2.6c15.1,5.3,27.7,15,36.4,28.2
		c15,23-2.2,44.4-2.9,45.3c-1.9,2.2-2.6,5.2-2.1,8c0.5,2.8,2.3,5.4,4.9,6.7c10.2,5.7,15.9,12.4,17.7,20.7
		c3.2,15.4-8.8,31.6-8.9,31.7c-2.4,3.2-2.7,7.5-0.6,10.9C483.9,199.8,481.6,217.8,477,228.5z"/>
	<path d="M348.5,204.8c-19.8,0-36,16.1-36,36c0,5.4,4.4,9.8,9.8,9.8c5.4,0,9.8-4.4,9.8-9.8c0-9.1,7.4-16.5,16.5-16.5
		c9.1,0,16.5,7.4,16.5,16.5c0,5.4,4.4,9.8,9.8,9.8c5.4,0,9.8-4.4,9.8-9.8C384.5,220.9,368.3,204.8,348.5,204.8z"/>
	<path d="M169.6,240.7c-0.1,5.4,4.2,9.9,9.6,10s9.9-4.2,10-9.6c0.2-9.6-3.4-18.8-10.1-25.7c-6.6-6.9-15.6-10.8-25.3-11
		c-19.8-0.4-36.3,15.4-36.7,35.4c0,0.5,0,0.9,0,1.4c0.1,5.4,4.5,9.6,9.8,9.6c0.1,0,0.1,0,0.2,0c5.4-0.1,9.7-4.6,9.6-10
		c0-0.2,0-0.4,0-0.7c0.1-4.4,1.9-8.5,5.1-11.5c3.1-3,7.3-4.7,11.7-4.6c4.4,0.1,8.5,1.9,11.5,5.1
		C168.1,232.1,169.6,236.2,169.6,240.7z"/>
	<path d="M326.2,328.5c-36.3,14.7-59.1-6.7-65.6-14.2v-0.4c12.5-1.7,29.2-7.9,32.6-31.6c1.5-10.1,1.4-23-0.3-34.8
		c-2.3-16.3-7.4-29.1-14.9-37.8c-7.4-8.6-17.2-13.1-28.4-13.1c-11.1,0-21,4.5-28.4,13.1c-7.6,8.8-12.6,21.5-14.9,37.9
		c-1.7,11.7-1.9,24.7-0.4,34.8c1.7,11.6,6.9,20.3,15.4,25.7c5.3,3.3,11.7,5.4,19.7,6.2v0.1c-2.6,2.9-7.9,8.1-15.5,12.4
		c-15.1,8.5-32,9.1-50.1,1.8c-5-2.1-10.6,0.4-12.7,5.4s0.4,10.6,5.4,12.7c11.5,4.7,22.1,6.4,31.4,6.4c14.7,0,26.8-4.5,35.5-9.3
		c6.6-3.7,11.9-7.9,15.8-11.6c3.9,3.7,9.2,7.9,15.8,11.6c8.6,4.8,20.6,9.3,35.5,9.3c9.4,0,19.9-1.8,31.4-6.4c5-2.1,7.4-7.7,5.4-12.7
		C336.8,328.9,331.2,326.4,326.2,328.5z"/>
</g>
</svg>
